<mxfile host="app.diagrams.net" agent="Mozilla/5.0 (Windows NT 10.0; Win64; x64) AppleWebKit/537.36 (KHTML, like Gecko) Chrome/128.0.0.0 Safari/537.36 Edg/128.0.0.0" version="24.7.12">
  <diagram name="Page-1" id="llaCwsJbwQGVnoqfy9CV">
    <mxGraphModel dx="1666" dy="749" grid="1" gridSize="10" guides="1" tooltips="1" connect="1" arrows="1" fold="1" page="1" pageScale="1" pageWidth="850" pageHeight="1100" math="0" shadow="0">
      <root>
        <mxCell id="0" />
        <mxCell id="1" parent="0" />
        <mxCell id="n84rLuiJboxY6W36FprT-1" value="sa_mesh_run_within_tile" style="rounded=0;whiteSpace=wrap;html=1;fillColor=#F8CECC;" parent="1" vertex="1">
          <mxGeometry x="331.71" y="20" width="165" height="40" as="geometry" />
        </mxCell>
        <mxCell id="yP2jUsO6pq2_japny_oM-3" style="edgeStyle=orthogonalEdgeStyle;rounded=0;orthogonalLoop=1;jettySize=auto;html=1;entryX=0.5;entryY=0;entryDx=0;entryDy=0;" edge="1" parent="1" source="n84rLuiJboxY6W36FprT-2" target="yP2jUsO6pq2_japny_oM-2">
          <mxGeometry relative="1" as="geometry" />
        </mxCell>
        <mxCell id="n84rLuiJboxY6W36FprT-2" value="run_within_tile_init" style="rounded=1;whiteSpace=wrap;html=1;" parent="1" vertex="1">
          <mxGeometry x="96.76" y="80" width="120" height="60" as="geometry" />
        </mxCell>
        <mxCell id="n84rLuiJboxY6W36FprT-7" value="" style="group" parent="1" vertex="1" connectable="0">
          <mxGeometry x="60.000000000000014" y="340" width="216.76" height="110" as="geometry" />
        </mxCell>
        <mxCell id="n84rLuiJboxY6W36FprT-3" value="&lt;div style=&quot;&quot;&gt;&lt;div style=&quot;text-align: center;&quot;&gt;&lt;br&gt;&lt;/div&gt;&lt;/div&gt;" style="whiteSpace=wrap;html=1;rounded=1;align=left;" parent="n84rLuiJboxY6W36FprT-7" vertex="1">
          <mxGeometry width="216.76" height="101.53846153846153" as="geometry" />
        </mxCell>
        <mxCell id="n84rLuiJboxY6W36FprT-6" value="&lt;div&gt;Call processes:&lt;/div&gt;&lt;div&gt;&lt;span style=&quot;background-color: initial;&quot;&gt;mountain_init&lt;/span&gt;&lt;span style=&quot;background-color: initial;&quot;&gt;&amp;nbsp;&lt;/span&gt;&lt;span style=&quot;background-color: initial;&quot;&gt;(fls, shd, cm)&lt;/span&gt;&lt;span style=&quot;background-color: initial;&quot;&gt;&amp;nbsp;&amp;nbsp;&lt;/span&gt;&lt;br&gt;&lt;/div&gt;&lt;div&gt;&lt;span style=&quot;background-color: initial;&quot;&gt;RUNCLASS36_init&amp;nbsp;&lt;/span&gt;&lt;span style=&quot;background-color: initial;&quot;&gt;(fls, shd, cm)&lt;/span&gt;&lt;/div&gt;&lt;div&gt;&amp;nbsp; &amp;nbsp; &amp;nbsp; runsvs_mesh_init (fls, shd, cm)&lt;/div&gt;&lt;div&gt;bflm_init&amp;nbsp;(fls, shd, cm)&lt;/div&gt;&lt;div&gt;&amp;nbsp; runci_init&amp;nbsp;(fls, shd, cm)&lt;/div&gt;&lt;div&gt;&lt;br&gt;&lt;/div&gt;" style="text;html=1;align=center;verticalAlign=middle;whiteSpace=wrap;rounded=0;" parent="n84rLuiJboxY6W36FprT-7" vertex="1">
          <mxGeometry x="13.368546976744186" y="11" width="190.04306976744186" height="79.53733333333334" as="geometry" />
        </mxCell>
        <mxCell id="n84rLuiJboxY6W36FprT-16" style="edgeStyle=orthogonalEdgeStyle;rounded=0;orthogonalLoop=1;jettySize=auto;html=1;exitX=0.5;exitY=1;exitDx=0;exitDy=0;" parent="1" source="n84rLuiJboxY6W36FprT-3" edge="1">
          <mxGeometry relative="1" as="geometry">
            <mxPoint x="166.76" y="450" as="sourcePoint" />
            <mxPoint x="168.76" y="470" as="targetPoint" />
          </mxGeometry>
        </mxCell>
        <mxCell id="n84rLuiJboxY6W36FprT-19" value="run_within_tile" style="rounded=1;whiteSpace=wrap;html=1;" parent="1" vertex="1">
          <mxGeometry x="520" y="90" width="120" height="60" as="geometry" />
        </mxCell>
        <mxCell id="n84rLuiJboxY6W36FprT-23" value="" style="edgeStyle=orthogonalEdgeStyle;rounded=0;orthogonalLoop=1;jettySize=auto;html=1;" parent="1" source="n84rLuiJboxY6W36FprT-20" target="n84rLuiJboxY6W36FprT-22" edge="1">
          <mxGeometry relative="1" as="geometry" />
        </mxCell>
        <mxCell id="n84rLuiJboxY6W36FprT-20" value="Call Processes:&lt;div&gt;&lt;span style=&quot;background-color: initial;&quot;&gt;mountain_within_tile&amp;nbsp;&lt;/span&gt;&lt;span style=&quot;background-color: initial;&quot;&gt;(fls, shd, cm)&lt;/span&gt;&lt;br&gt;&lt;/div&gt;&lt;div&gt;&lt;div&gt;&amp;nbsp; &amp;nbsp; &amp;nbsp; &amp;nbsp; call RUNCLASS36_within_tile(fls, shd, cm)&lt;/div&gt;&lt;div&gt;&amp;nbsp; &amp;nbsp; &amp;nbsp; &amp;nbsp; call runsvs_mesh_within_tile(fls, shd, cm)&lt;/div&gt;&lt;div&gt;&amp;nbsp; &amp;nbsp; &amp;nbsp; &amp;nbsp; call bflm_within_tile(fls, shd, cm)&lt;/div&gt;&lt;div&gt;&amp;nbsp; &amp;nbsp; &amp;nbsp; &amp;nbsp; call runci_within_tile(fls, shd, cm)&lt;/div&gt;&lt;/div&gt;" style="whiteSpace=wrap;html=1;rounded=1;" parent="1" vertex="1">
          <mxGeometry x="470.25" y="440" width="256.5" height="120" as="geometry" />
        </mxCell>
        <mxCell id="yP2jUsO6pq2_japny_oM-17" style="edgeStyle=orthogonalEdgeStyle;rounded=0;orthogonalLoop=1;jettySize=auto;html=1;entryX=0.5;entryY=0;entryDx=0;entryDy=0;" edge="1" parent="1" source="n84rLuiJboxY6W36FprT-22" target="yP2jUsO6pq2_japny_oM-16">
          <mxGeometry relative="1" as="geometry" />
        </mxCell>
        <mxCell id="n84rLuiJboxY6W36FprT-22" value="&lt;div&gt;call run_within_tile_mpi_isend(fls, shd, cm)&lt;br&gt;&lt;/div&gt;call run_within_tile_stas_update(fls, shd, cm)" style="whiteSpace=wrap;html=1;rounded=1;" parent="1" vertex="1">
          <mxGeometry x="476" y="590" width="245.82" height="60" as="geometry" />
        </mxCell>
        <mxCell id="n84rLuiJboxY6W36FprT-26" value="run_within_tile_finalize" style="rounded=1;whiteSpace=wrap;html=1;" parent="1" vertex="1">
          <mxGeometry x="534.08" y="730" width="135.92" height="40" as="geometry" />
        </mxCell>
        <mxCell id="n84rLuiJboxY6W36FprT-27" value="Call processes:&lt;div&gt;&lt;div&gt;RUNCLASS36_finalize&amp;nbsp;(fls, shd, cm)&lt;/div&gt;&lt;div&gt;&amp;nbsp; &amp;nbsp; &amp;nbsp; &amp;nbsp; bflm_finalize&amp;nbsp;(fls, shd, cm)&lt;/div&gt;&lt;div&gt;&amp;nbsp; &amp;nbsp; &amp;nbsp; &amp;nbsp; runsvs_mesh_finalize&amp;nbsp;(fls, shd, cm)&lt;/div&gt;&lt;/div&gt;" style="whiteSpace=wrap;html=1;rounded=1;" parent="1" vertex="1">
          <mxGeometry x="496.71000000000004" y="950" width="233.09" height="80" as="geometry" />
        </mxCell>
        <mxCell id="yP2jUsO6pq2_japny_oM-20" style="edgeStyle=orthogonalEdgeStyle;rounded=0;orthogonalLoop=1;jettySize=auto;html=1;entryX=0.5;entryY=0;entryDx=0;entryDy=0;" edge="1" parent="1" source="1o-a0319OkapsV6aXgHL-1" target="yP2jUsO6pq2_japny_oM-19">
          <mxGeometry relative="1" as="geometry" />
        </mxCell>
        <mxCell id="1o-a0319OkapsV6aXgHL-1" value="run_within_tile_stas_update" style="rounded=1;whiteSpace=wrap;html=1;" parent="1" vertex="1">
          <mxGeometry x="112.15" y="660" width="157.61" height="60" as="geometry" />
        </mxCell>
        <mxCell id="yP2jUsO6pq2_japny_oM-30" style="edgeStyle=orthogonalEdgeStyle;rounded=0;orthogonalLoop=1;jettySize=auto;html=1;exitX=0.5;exitY=1;exitDx=0;exitDy=0;entryX=0.5;entryY=0;entryDx=0;entryDy=0;" edge="1" parent="1" source="1o-a0319OkapsV6aXgHL-2" target="yP2jUsO6pq2_japny_oM-29">
          <mxGeometry relative="1" as="geometry" />
        </mxCell>
        <mxCell id="1o-a0319OkapsV6aXgHL-2" value="Updates tile variables &quot;vs%tile%*:&lt;div&gt;lqwssno,&amp;nbsp;tsno, albt,&amp;nbsp;zpnd,&amp;nbsp;dzsolhyd,&amp;nbsp;fzwssol,&amp;nbsp;rchg,&amp;nbsp;lkg,&amp;nbsp;rff&lt;br&gt;&lt;div&gt;&lt;br&gt;&lt;/div&gt;&lt;/div&gt;" style="whiteSpace=wrap;html=1;rounded=1;" parent="1" vertex="1">
          <mxGeometry x="81.38" y="930" width="227.5" height="80" as="geometry" />
        </mxCell>
        <mxCell id="yP2jUsO6pq2_japny_oM-5" value="" style="edgeStyle=orthogonalEdgeStyle;rounded=0;orthogonalLoop=1;jettySize=auto;html=1;" edge="1" parent="1" source="yP2jUsO6pq2_japny_oM-1">
          <mxGeometry relative="1" as="geometry">
            <mxPoint x="166.76" y="340" as="targetPoint" />
          </mxGeometry>
        </mxCell>
        <mxCell id="yP2jUsO6pq2_japny_oM-1" value="&lt;div&gt;ro%RUNTILE == True&lt;/div&gt;" style="rhombus;whiteSpace=wrap;html=1;rounded=1;fillColor=#F19C99;" vertex="1" parent="1">
          <mxGeometry x="71.64" y="250" width="186.89" height="60" as="geometry" />
        </mxCell>
        <mxCell id="yP2jUsO6pq2_japny_oM-2" value="Initialize variables and parameters e.g. fls, shd,&amp;nbsp;cm, etc." style="rounded=1;whiteSpace=wrap;html=1;" vertex="1" parent="1">
          <mxGeometry x="92.21210526315788" y="169.99898203592812" width="134.10526315789477" height="56.40718562874251" as="geometry" />
        </mxCell>
        <mxCell id="yP2jUsO6pq2_japny_oM-4" style="edgeStyle=orthogonalEdgeStyle;rounded=0;orthogonalLoop=1;jettySize=auto;html=1;entryX=0.466;entryY=0.017;entryDx=0;entryDy=0;entryPerimeter=0;" edge="1" parent="1" source="yP2jUsO6pq2_japny_oM-2" target="yP2jUsO6pq2_japny_oM-1">
          <mxGeometry relative="1" as="geometry" />
        </mxCell>
        <mxCell id="yP2jUsO6pq2_japny_oM-8" style="edgeStyle=orthogonalEdgeStyle;rounded=0;orthogonalLoop=1;jettySize=auto;html=1;entryX=0.5;entryY=0;entryDx=0;entryDy=0;" edge="1" parent="1" source="yP2jUsO6pq2_japny_oM-6" target="yP2jUsO6pq2_japny_oM-7">
          <mxGeometry relative="1" as="geometry" />
        </mxCell>
        <mxCell id="yP2jUsO6pq2_japny_oM-6" value="run_within_tile_stas_update(fls, shd, cm)" style="rounded=1;whiteSpace=wrap;html=1;" vertex="1" parent="1">
          <mxGeometry x="81.38000000000001" y="470" width="188.38" height="70" as="geometry" />
        </mxCell>
        <mxCell id="yP2jUsO6pq2_japny_oM-7" value="end subroutine" style="whiteSpace=wrap;html=1;rounded=1;" vertex="1" parent="1">
          <mxGeometry x="120.26" y="570" width="111.19" height="40" as="geometry" />
        </mxCell>
        <mxCell id="yP2jUsO6pq2_japny_oM-14" value="" style="edgeStyle=orthogonalEdgeStyle;rounded=0;orthogonalLoop=1;jettySize=auto;html=1;" edge="1" parent="1" source="yP2jUsO6pq2_japny_oM-9" target="yP2jUsO6pq2_japny_oM-13">
          <mxGeometry relative="1" as="geometry" />
        </mxCell>
        <mxCell id="yP2jUsO6pq2_japny_oM-9" value="&lt;div&gt;ro%RUNTILE == True&lt;/div&gt;" style="rhombus;whiteSpace=wrap;html=1;rounded=1;fillColor=#F19C99;" vertex="1" parent="1">
          <mxGeometry x="494.18" y="260" width="186.89" height="60" as="geometry" />
        </mxCell>
        <mxCell id="yP2jUsO6pq2_japny_oM-10" value="Initialize variables and parameters e.g. fls, shd,&amp;nbsp;cm, etc." style="rounded=1;whiteSpace=wrap;html=1;" vertex="1" parent="1">
          <mxGeometry x="520.5721052631579" y="179.99898203592812" width="134.10526315789477" height="56.40718562874251" as="geometry" />
        </mxCell>
        <mxCell id="yP2jUsO6pq2_japny_oM-11" style="edgeStyle=orthogonalEdgeStyle;rounded=0;orthogonalLoop=1;jettySize=auto;html=1;exitX=0.5;exitY=1;exitDx=0;exitDy=0;entryX=0.443;entryY=0.018;entryDx=0;entryDy=0;entryPerimeter=0;" edge="1" parent="1" source="n84rLuiJboxY6W36FprT-19" target="yP2jUsO6pq2_japny_oM-10">
          <mxGeometry relative="1" as="geometry" />
        </mxCell>
        <mxCell id="yP2jUsO6pq2_japny_oM-12" style="edgeStyle=orthogonalEdgeStyle;rounded=0;orthogonalLoop=1;jettySize=auto;html=1;entryX=0.5;entryY=0;entryDx=0;entryDy=0;" edge="1" parent="1" source="yP2jUsO6pq2_japny_oM-10" target="yP2jUsO6pq2_japny_oM-9">
          <mxGeometry relative="1" as="geometry" />
        </mxCell>
        <mxCell id="yP2jUsO6pq2_japny_oM-13" value="call run_within_tile_mpi_irecv(fls, shd, cm)&lt;div&gt;call run_within_tile_stas_reset(fls, shd, cm)&lt;br&gt;&lt;div&gt;&lt;br&gt;&lt;/div&gt;&lt;/div&gt;" style="whiteSpace=wrap;html=1;fillColor=#FFFFFF;rounded=1;" vertex="1" parent="1">
          <mxGeometry x="458.34000000000003" y="350" width="258.57" height="60" as="geometry" />
        </mxCell>
        <mxCell id="yP2jUsO6pq2_japny_oM-15" style="edgeStyle=orthogonalEdgeStyle;rounded=0;orthogonalLoop=1;jettySize=auto;html=1;entryX=0.471;entryY=-0.023;entryDx=0;entryDy=0;entryPerimeter=0;" edge="1" parent="1" source="yP2jUsO6pq2_japny_oM-13" target="n84rLuiJboxY6W36FprT-20">
          <mxGeometry relative="1" as="geometry" />
        </mxCell>
        <mxCell id="yP2jUsO6pq2_japny_oM-16" value="end subroutine" style="whiteSpace=wrap;html=1;rounded=1;" vertex="1" parent="1">
          <mxGeometry x="543.49" y="670" width="111.19" height="40" as="geometry" />
        </mxCell>
        <mxCell id="yP2jUsO6pq2_japny_oM-22" style="edgeStyle=orthogonalEdgeStyle;rounded=0;orthogonalLoop=1;jettySize=auto;html=1;entryX=0.5;entryY=0;entryDx=0;entryDy=0;" edge="1" parent="1" source="yP2jUsO6pq2_japny_oM-18" target="1o-a0319OkapsV6aXgHL-2">
          <mxGeometry relative="1" as="geometry" />
        </mxCell>
        <mxCell id="yP2jUsO6pq2_japny_oM-18" value="&lt;div&gt;ro%RUNTILE == True&lt;/div&gt;" style="rhombus;whiteSpace=wrap;html=1;rounded=1;fillColor=#F19C99;" vertex="1" parent="1">
          <mxGeometry x="98.03" y="830" width="186.89" height="60" as="geometry" />
        </mxCell>
        <mxCell id="yP2jUsO6pq2_japny_oM-21" style="edgeStyle=orthogonalEdgeStyle;rounded=0;orthogonalLoop=1;jettySize=auto;html=1;entryX=0.5;entryY=0;entryDx=0;entryDy=0;" edge="1" parent="1" source="yP2jUsO6pq2_japny_oM-19" target="yP2jUsO6pq2_japny_oM-18">
          <mxGeometry relative="1" as="geometry" />
        </mxCell>
        <mxCell id="yP2jUsO6pq2_japny_oM-19" value="Initialize variables and parameters e.g. fls, shd,&amp;nbsp;cm, etc." style="rounded=1;whiteSpace=wrap;html=1;" vertex="1" parent="1">
          <mxGeometry x="124.42210526315783" y="749.9989820359281" width="134.10526315789477" height="56.40718562874251" as="geometry" />
        </mxCell>
        <mxCell id="yP2jUsO6pq2_japny_oM-28" style="edgeStyle=orthogonalEdgeStyle;rounded=0;orthogonalLoop=1;jettySize=auto;html=1;exitX=0.5;exitY=1;exitDx=0;exitDy=0;entryX=0.5;entryY=0;entryDx=0;entryDy=0;" edge="1" parent="1" source="yP2jUsO6pq2_japny_oM-24" target="n84rLuiJboxY6W36FprT-27">
          <mxGeometry relative="1" as="geometry" />
        </mxCell>
        <mxCell id="yP2jUsO6pq2_japny_oM-24" value="&lt;div&gt;ro%RUNTILE == True&lt;/div&gt;" style="rhombus;whiteSpace=wrap;html=1;rounded=1;fillColor=#F19C99;" vertex="1" parent="1">
          <mxGeometry x="519.81" y="870" width="186.89" height="60" as="geometry" />
        </mxCell>
        <mxCell id="yP2jUsO6pq2_japny_oM-27" style="edgeStyle=orthogonalEdgeStyle;rounded=0;orthogonalLoop=1;jettySize=auto;html=1;entryX=0.5;entryY=0;entryDx=0;entryDy=0;" edge="1" parent="1" source="yP2jUsO6pq2_japny_oM-25" target="yP2jUsO6pq2_japny_oM-24">
          <mxGeometry relative="1" as="geometry" />
        </mxCell>
        <mxCell id="yP2jUsO6pq2_japny_oM-25" value="Initialize variables and parameters e.g. fls, shd,&amp;nbsp;cm, etc." style="rounded=1;whiteSpace=wrap;html=1;" vertex="1" parent="1">
          <mxGeometry x="543.4921052631578" y="789.9989820359281" width="134.10526315789477" height="56.40718562874251" as="geometry" />
        </mxCell>
        <mxCell id="yP2jUsO6pq2_japny_oM-26" style="edgeStyle=orthogonalEdgeStyle;rounded=0;orthogonalLoop=1;jettySize=auto;html=1;entryX=0.421;entryY=0.035;entryDx=0;entryDy=0;entryPerimeter=0;" edge="1" parent="1" source="n84rLuiJboxY6W36FprT-26" target="yP2jUsO6pq2_japny_oM-25">
          <mxGeometry relative="1" as="geometry" />
        </mxCell>
        <mxCell id="yP2jUsO6pq2_japny_oM-29" value="end subroutine" style="whiteSpace=wrap;html=1;rounded=1;" vertex="1" parent="1">
          <mxGeometry x="135.35999999999999" y="1040" width="111.19" height="40" as="geometry" />
        </mxCell>
        <mxCell id="yP2jUsO6pq2_japny_oM-31" value="end subroutine" style="whiteSpace=wrap;html=1;rounded=1;" vertex="1" parent="1">
          <mxGeometry x="558.81" y="1060" width="111.19" height="40" as="geometry" />
        </mxCell>
        <mxCell id="yP2jUsO6pq2_japny_oM-32" style="edgeStyle=orthogonalEdgeStyle;rounded=0;orthogonalLoop=1;jettySize=auto;html=1;entryX=0.5;entryY=0;entryDx=0;entryDy=0;" edge="1" parent="1" source="n84rLuiJboxY6W36FprT-27" target="yP2jUsO6pq2_japny_oM-31">
          <mxGeometry relative="1" as="geometry" />
        </mxCell>
      </root>
    </mxGraphModel>
  </diagram>
</mxfile>
